# File created by Blade
# Date/Time:  Tue Jan 27 18:05:51 2015
#---------------------------------------------------------
:version 1.10
:name HOM
:units
  mass 1.0
  length 1.000000
  angle deg
:documentation
     Acclaim Skeleton File
:root
   axis xyz
   order TX TY TZ RX RY RZ
   position 0.000000 0.000000 0.000000
   orientation 0 0 0
:bonedata
   begin
      id 1
      name Spine_dum
      direction 0.000000 1.000000 0.000000
      length 5.195262
      axis 0.0 0.0 0.0 xyz
   end
   begin
      id 2
      name LeftUpLeg_dum
      direction 1.000000 0.000000 0.000000
      length 3.351363
      axis 0.0 0.0 0.0 xyz
   end
   begin
      id 3
      name RightUpLeg_dum
      direction -1.000000 0.000000 0.000000
      length 3.351363
      axis 0.0 0.0 0.0 xyz
   end
   begin
      id 4
      name Spine
      direction 0.000000 1.000000 0.000000
      length 0.000000
      axis 0.0 0.0 0.0 xyz
      dof rx ry rz
   end
   begin
      id 5
      name Spine_dum1
      direction 0.000000 1.000000 0.000000
      length 15.653875
      axis 0.0 0.0 0.0 xyz
   end
   begin
      id 6
      name Spine_dum2
      direction 0.000000 1.000000 0.000000
      length 10.329768
      axis 0.0 0.0 0.0 xyz
   end
   begin
      id 7
      name Spine_dum3
      direction 0.000000 1.000000 0.000000
      length 10.329768
      axis 0.0 0.0 0.0 xyz
   end
   begin
      id 8
      name Head
      direction 0.000000 1.000000 0.000000
      length 4.527550
      axis 0.0 0.0 0.0 xyz
      dof rx ry rz
   end
   begin
      id 9
      name LeftShoulder
      direction 1.000000 0.000000 0.000000
      length 6.996006
      axis 0.0 0.0 -90.0 xyz
      dof rx ry rz
   end
   begin
      id 10
      name LeftArm
      direction 1.000000 0.000000 0.000000
      length 10.209302
      axis 0.0 0.0 -90.0 xyz
      dof rx ry rz
   end
   begin
      id 11
      name LeftForeArm
      direction 1.000000 0.000000 0.000000
      length 8.563163
      axis 0.0 0.0 -90.0 xyz
      dof ry rz rx
   end
   begin
      id 12
      name LeftHand
      direction 0.000000 0.000000 0.000000
      length 0.000000
      axis 0.0 0.0 -90.0 xyz
      dof rx ry rz
   end
   begin
      id 13
      name LeftHand_dum1
      direction 0.000000 0.000000 0.000000
      length 0.000000
      axis 0.0 0.0 -90.0 xyz
   end
   begin
      id 14
      name LeftHand_dum2
      direction 1.000000 0.000000 0.000000
      length 3.937000
      axis 0.0 0.0 -90.0 xyz
   end
   begin
      id 15
      name LeftHandThumb1
      direction 0.000000 0.000000 1.000000
      length 3.937000
      axis 0.0 0.0 -90.0 xyz
      dof rx rz ry
   end
   begin
      id 16
      name RightShoulder
      direction -1.000000 0.000000 0.000000
      length 6.996006
      axis 0.0 0.0 90.0 xyz
      dof rx ry rz
   end
   begin
      id 17
      name RightArm
      direction -1.000000 0.000000 0.000000
      length 10.209302
      axis 0.0 0.0 90.0 xyz
      dof rx ry rz
   end
   begin
      id 18
      name RightForeArm
      direction -1.000000 0.000000 0.000000
      length 8.563163
      axis 0.0 0.0 90.0 xyz
      dof ry rz rx
   end
   begin
      id 19
      name RightHand
      direction 0.000000 0.000000 0.000000
      length 0.000000
      axis 0.0 0.0 90.0 xyz
      dof rx ry rz
   end
   begin
      id 20
      name RightHand_dum1
      direction 0.000000 0.000000 0.000000
      length 0.000000
      axis 0.0 0.0 90.0 xyz
   end
   begin
      id 21
      name RightHand_dum2
      direction -1.000000 0.000000 0.000000
      length 3.937000
      axis 0.0 0.0 90.0 xyz
   end
   begin
      id 22
      name RightHandThumb1
      direction 0.000000 0.000000 1.000000
      length 3.937000
      axis 0.0 0.0 90.0 xyz
      dof rx rz ry
   end
   begin
      id 23
      name LeftUpLeg
      direction 0.000000 -1.000000 0.000000
      length 16.346831
      axis 0.0 0.0 0.0 xyz
      dof rx ry rz
   end
   begin
      id 24
      name LeftLeg
      direction 0.000000 -1.000000 0.000000
      length 13.959795
      axis 0.0 0.0 0.0 xyz
      dof rx ry rz
   end
   begin
      id 25
      name LeftFoot
      direction 0.000000 -0.258819 0.965926
      length 5.165550
      axis 15.0 0.0 0.0 xyz
      dof rx ry rz
   end
   begin
      id 26
      name LeftToeBase
      direction 0.000000 0.000000 1.000000
      length 2.952750
      axis 0.0 0.0 0.0 xyz
      dof rx ry rz
   end
   begin
      id 27
      name RightUpLeg
      direction 0.000000 -1.000000 0.000000
      length 16.346831
      axis 0.0 0.0 0.0 xyz
      dof rx ry rz
   end
   begin
      id 28
      name RightLeg
      direction 0.000000 -1.000000 0.000000
      length 13.959795
      axis 0.0 0.0 0.0 xyz
      dof rx ry rz
   end
   begin
      id 29
      name RightFoot
      direction 0.000000 -0.258819 0.965926
      length 5.165550
      axis 15.0 0.0 0.0 xyz
      dof rx ry rz
   end
   begin
      id 30
      name RightToeBase
      direction 0.000000 0.000000 1.000000
      length 2.952750
      axis 0.0 0.0 0.0 xyz
      dof rx ry rz
   end
:hierarchy
   begin
      root Spine_dum LeftUpLeg_dum RightUpLeg_dum
      Spine_dum Spine
      LeftUpLeg_dum LeftUpLeg
      RightUpLeg_dum RightUpLeg
      Spine Spine_dum1 Spine_dum2 Spine_dum3
      Spine_dum1 Head
      Spine_dum2 LeftShoulder
      Spine_dum3 RightShoulder
      LeftShoulder LeftArm
      LeftArm LeftForeArm
      LeftForeArm LeftHand
      LeftHand LeftHand_dum1 LeftHand_dum2
      LeftHand_dum1 LeftHandThumb1
      RightShoulder RightArm
      RightArm RightForeArm
      RightForeArm RightHand
      RightHand RightHand_dum1 RightHand_dum2
      RightHand_dum1 RightHandThumb1
      LeftUpLeg LeftLeg
      LeftLeg LeftFoot
      LeftFoot LeftToeBase
      RightUpLeg RightLeg
      RightLeg RightFoot
      RightFoot RightToeBase
   end

# File created by Blade
# Date/Time:  Tue Jan 27 18:05:41 2015
# Frame Rate: 120.000 fps
#------------------------------------------------------
:FULLY-SPECIFIED
:DEGREES
1608
root -1.305130 31.887384 -6.103250 7.429071 22.315326 5.208279
Spine -8.638326 -0.356985 -4.774184
Head -4.580538 -25.275640 3.869672
LeftShoulder -9.429027 15.521662 5.019310
LeftArm 25.476514 40.366739 -69.344165
LeftForeArm -2.653614 -0.000000 14.280313
LeftHand -10.556634 0.000000 -5.617420
LeftHandThumb1 -26.253704 0.000000 33.147579
RightShoulder -1.352759 30.533259 -42.945131
RightArm 72.629601 43.117274 103.928746
RightForeArm 27.333721 0.000000 97.469640
RightHand -5.200856 0.000000 6.659605
RightHandThumb1 -24.326973 -0.000000 -32.862282
LeftUpLeg -3.359261 -10.108389 -1.121834
LeftLeg 1.266198 -0.000000 -0.000000
LeftFoot -13.992459 11.479377 -23.915911
LeftToeBase 8.477266 -0.000000 -0.000000
RightUpLeg 3.969180 -13.260859 -4.000590
RightLeg -3.574583 -0.000000 0.000000
RightFoot -17.997305 -19.687296 12.117907
RightToeBase 5.357911 -0.000000 -0.000000
1609
root -1.305050 31.886813 -6.101149 7.426373 22.282211 5.203247
Spine -8.652960 -0.355411 -4.776903
Head -4.523743 -25.251044 3.885727
LeftShoulder -9.433669 15.525818 5.018556
LeftArm 25.497592 40.342773 -69.363985
LeftForeArm -2.563558 0.000000 14.321165
LeftHand -10.485143 -0.000000 -5.507217
LeftHandThumb1 -26.253704 0.000000 33.147579
RightShoulder -1.344267 30.529506 -42.944911
RightArm 72.610217 43.073763 103.936384
RightForeArm 27.347069 -0.000000 97.497226
RightHand -5.160798 0.000000 6.834523
RightHandThumb1 -24.326973 -0.000000 -32.862282
LeftUpLeg -3.352255 -10.089650 -1.118644
LeftLeg 1.268560 -0.000000 -0.000000
LeftFoot -14.009849 11.482884 -23.894923
LeftToeBase 8.488342 -0.000000 -0.000000
RightUpLeg 3.972821 -13.229262 -3.998941
RightLeg -3.586226 -0.000000 0.000000
RightFoot -17.993773 -19.679662 12.122867
RightToeBase 5.343937 -0.000000 -0.000000
1610
root -1.304208 31.886655 -6.099506 7.424821 22.247758 5.199652
Spine -8.671009 -0.349360 -4.779403
Head -4.449991 -25.246342 3.882961
LeftShoulder -9.425998 15.519399 5.018288
LeftArm 25.504964 40.332487 -69.384636
LeftForeArm -2.560502 0.000000 14.355330
LeftHand -10.454714 -0.000000 -5.579015
LeftHandThumb1 -26.253704 0.000000 33.147579
RightShoulder -1.318042 30.538894 -42.930747
RightArm 72.551762 43.050183 103.882400
RightForeArm 27.354626 0.000000 97.526536
RightHand -5.170397 -0.000000 6.839181
RightHandThumb1 -24.326973 -0.000000 -32.862282
LeftUpLeg -3.348336 -10.064088 -1.120960
LeftLeg 1.273849 -0.000000 -0.000000
LeftFoot -14.032198 11.479762 -23.938642
LeftToeBase 8.499904 -0.000000 -0.000000
RightUpLeg 3.972261 -13.169789 -4.001015
RightLeg -3.588377 -0.000000 0.000000
RightFoot -17.995821 -19.693859 12.132787
RightToeBase 5.341358 -0.000000 -0.000000
1611
root -1.303520 31.886486 -6.097213 7.424262 22.224597 5.194186
Spine -8.691019 -0.339521 -4.780516
Head -4.393692 -25.251420 3.887192
LeftShoulder -9.423825 15.518773 5.020911
LeftArm 25.525585 40.345716 -69.396175
LeftForeArm -2.493650 -0.000000 14.399767
LeftHand -10.606700 -0.000000 -6.025736
LeftHandThumb1 -26.253704 0.000000 33.147579
RightShoulder -1.306148 30.597909 -42.915574
RightArm 72.409221 43.029765 103.765968
RightForeArm 27.356923 0.000000 97.551607
RightHand -5.169749 -0.000000 6.881952
RightHandThumb1 -24.326973 -0.000000 -32.862282
LeftUpLeg -3.344928 -10.040874 -1.120841
LeftLeg 1.277321 -0.000000 -0.000000
LeftFoot -14.035108 11.484571 -23.918200
LeftToeBase 8.469987 -0.000000 -0.000000
RightUpLeg 3.971360 -13.155527 -3.999375
RightLeg -3.588891 -0.000000 0.000000
RightFoot -17.987555 -19.691813 12.094253
RightToeBase 5.365965 -0.000000 -0.000000
1612
root -1.303677 31.885767 -6.095342 7.422120 22.205952 5.191071
Spine -8.703107 -0.344905 -4.786200
Head -4.335780 -25.235161 3.898023
LeftShoulder -9.429358 15.510253 5.024500
LeftArm 25.533988 40.339706 -69.424821
LeftForeArm -2.433750 0.000000 14.441431
LeftHand -10.608677 -0.000000 -5.927161
LeftHandThumb1 -26.253704 0.000000 33.147579
RightShoulder -1.311932 30.594808 -42.920447
RightArm 72.420792 42.954286 103.835710
RightForeArm 27.311328 -0.000000 97.553099
RightHand -5.155565 -0.000000 6.968663
RightHandThumb1 -24.326973 -0.000000 -32.862282
LeftUpLeg -3.337156 -10.042158 -1.120952
LeftLeg 1.276590 -0.000000 -0.000000
LeftFoot -14.057813 11.504615 -23.905101
LeftToeBase 8.469820 -0.000000 -0.000000
RightUpLeg 3.969780 -13.124693 -3.997254
RightLeg -3.584202 -0.000000 0.000000
RightFoot -18.000597 -19.689655 12.117157
RightToeBase 5.351366 -0.000000 -0.000000
1613
root -1.301475 31.885807 -6.092900 7.416467 22.183489 5.188159
Spine -8.715675 -0.322399 -4.785776
Head -4.285544 -25.237616 3.890865
LeftShoulder -9.426578 15.507654 5.017280
LeftArm 25.563073 40.361802 -69.416381
LeftForeArm -2.348953 -0.000000 14.481978
LeftHand -10.577689 -0.000000 -5.824132
LeftHandThumb1 -26.253704 0.000000 33.147579
RightShoulder -1.304975 30.658228 -42.912429
RightArm 72.259927 42.942652 103.701816
RightForeArm 27.377328 -0.000000 97.566503
RightHand -5.170957 -0.000000 6.965518
RightHandThumb1 -24.326973 -0.000000 -32.862282
LeftUpLeg -3.324868 -10.025191 -1.124493
LeftLeg 1.274906 -0.000000 -0.000000
LeftFoot -14.059989 11.510029 -23.913016
LeftToeBase 8.447201 -0.000000 -0.000000
RightUpLeg 3.976760 -13.106706 -4.001743
RightLeg -3.587444 -0.000000 0.000000
RightFoot -17.997945 -19.679315 12.135080
RightToeBase 5.332209 -0.000000 -0.000000
1614
root -1.302364 31.885146 -6.091510 7.413565 22.189308 5.186028
Spine -8.724921 -0.334402 -4.792808
Head -4.235866 -25.219841 3.895963
LeftShoulder -9.420082 15.496571 5.025686
LeftArm 25.576450 40.370532 -69.431002
LeftForeArm -2.319948 -0.000000 14.522415
LeftHand -10.531909 -0.000000 -5.433179
LeftHandThumb1 -26.253704 0.000000 33.147579
RightShoulder -1.283957 30.653963 -42.887502
RightArm 72.226354 42.911412 103.663108
RightForeArm 27.350254 -0.000000 97.570328
RightHand -5.217835 0.000000 6.946432
RightHandThumb1 -24.326973 -0.000000 -32.862282
LeftUpLeg -3.327234 -10.021599 -1.119222
LeftLeg 1.285621 -0.000000 -0.000000
LeftFoot -14.064790 11.500680 -23.883247
LeftToeBase 8.469531 -0.000000 -0.000000
RightUpLeg 3.982184 -13.098440 -3.996954
RightLeg -3.586470 -0.000000 0.000000
RightFoot -18.000959 -19.690467 12.113360
RightToeBase 5.356162 -0.000000 -0.000000
